# xmcd CD database file
#
# Track frame offsets:
#	150
#	22380
#	46329
#	79234
#	95060
#	119789
#	143621
#	169138
#	190051
#	215662
#
# Disc length: 3247 seconds
#
# Revision: 1
# Processed by: cddbd v1.4PL0 Copyright (c) Steve Scherf et al.
# Submitted via: CDex 1.50Beta7
#
DISCID=960cad0a
DTITLE=Mississippi Barry - For a Few Barrys More
DYEAR=1900
DGENRE=Blues
TTITLE0=Passing Nod
TTITLE1=Big Pineapple
TTITLE2=The Old Boy
TTITLE3=Powerlines and Streetsigns
TTITLE4=Morries Blues
TTITLE5=Doesn't Happen Everyday
TTITLE6=Ascension Blues
TTITLE7=Looking For PRJ
TTITLE8=Blues for Tom
TTITLE9=At the End of the Day
EXTD=
EXTT0=
EXTT1=
EXTT2=
EXTT3=
EXTT4=
EXTT5=
EXTT6=
EXTT7=
EXTT8=
EXTT9=
PLAYORDER=
